<svg width="28" height="27" viewBox="0 0 28 27" fill="none" xmlns="http://www.w3.org/2000/svg">
<rect width="28" height="27" rx="5" fill="#272727"/>
<path d="M7.92493 18.9997H10.083V12.8194L7.00003 10.0928V17.9091C7.00003 18.5116 7.41392 18.9997 7.92493 18.9997Z" fill="white"/>
<path d="M17.4822 18.9997H19.6403C20.1513 18.9997 20.5652 18.5116 20.5652 17.9091V10.0928L17.4822 12.8194V18.9997Z" fill="white"/>
<path d="M17.4822 8.09358V12.8197L20.5652 10.0931V8.63891C20.5652 7.29105 19.2604 6.52124 18.3455 7.33013L17.4822 8.09358Z" fill="white"/>
<path d="M10.083 12.8199V8.09375L13.7826 11.3657L17.4822 8.09375V12.8199L13.7826 16.0918L10.083 12.8199Z" fill="white"/>
<path d="M7 8.63891V10.0931L10.083 12.8197V8.09358L9.21976 7.33013C8.30488 6.52124 7 7.29105 7 8.63891Z" fill="white"/>
</svg>
