<svg width="28" height="27" viewBox="0 0 28 27" fill="none" xmlns="http://www.w3.org/2000/svg">
<rect width="28" height="27" rx="5" fill="#272727"/>
<path d="M14.002 7C11.497 7 10.7644 7.00258 10.622 7.0144C10.108 7.05714 9.78807 7.1381 9.43959 7.31166C9.17102 7.44505 8.95921 7.59968 8.75018 7.81644C8.36948 8.21173 8.13875 8.69805 8.05523 9.27613C8.01462 9.55677 8.00281 9.61401 8.00041 11.0475C7.99949 11.5253 8.00041 12.1542 8.00041 12.9976C8.00041 15.5012 8.00318 16.2333 8.01518 16.3755C8.05671 16.8758 8.13515 17.1906 8.30128 17.535C8.61876 18.1941 9.2251 18.6889 9.93943 18.8735C10.1868 18.9372 10.4599 18.9723 10.8107 18.9889C10.9592 18.9954 12.4737 19 13.9891 19C15.5045 19 17.0199 18.9982 17.1648 18.9908C17.5709 18.9717 17.8067 18.94 18.0674 18.8726C18.4216 18.7817 18.7517 18.6146 19.0347 18.383C19.3176 18.1513 19.5466 17.8606 19.7056 17.5313C19.8685 17.1952 19.9511 16.8684 19.9885 16.3942C19.9966 16.2908 20 14.6423 20 12.9961C20 11.3495 19.9963 9.70411 19.9882 9.60071C19.9503 9.11883 19.8677 8.7948 19.6996 8.45231C19.5616 8.17195 19.4084 7.96257 19.186 7.74849C18.7892 7.36926 18.3037 7.13847 17.7251 7.05502C17.4448 7.01449 17.389 7.00249 15.9548 7H14.002Z" fill="url(#paint0_radial_2488_3931)"/>
<path d="M14.002 7C11.497 7 10.7644 7.00258 10.622 7.0144C10.108 7.05714 9.78807 7.1381 9.43959 7.31166C9.17102 7.44505 8.95921 7.59968 8.75018 7.81644C8.36948 8.21173 8.13875 8.69805 8.05523 9.27613C8.01462 9.55677 8.00281 9.61401 8.00041 11.0475C7.99949 11.5253 8.00041 12.1542 8.00041 12.9976C8.00041 15.5012 8.00318 16.2333 8.01518 16.3755C8.05671 16.8758 8.13515 17.1906 8.30128 17.535C8.61876 18.1941 9.2251 18.6889 9.93943 18.8735C10.1868 18.9372 10.4599 18.9723 10.8107 18.9889C10.9592 18.9954 12.4737 19 13.9891 19C15.5045 19 17.0199 18.9982 17.1648 18.9908C17.5709 18.9717 17.8067 18.94 18.0674 18.8726C18.4216 18.7817 18.7517 18.6146 19.0347 18.383C19.3176 18.1513 19.5466 17.8606 19.7056 17.5313C19.8685 17.1952 19.9511 16.8684 19.9885 16.3942C19.9966 16.2908 20 14.6423 20 12.9961C20 11.3495 19.9963 9.70411 19.9882 9.60071C19.9503 9.11883 19.8677 8.7948 19.6996 8.45231C19.5616 8.17195 19.4084 7.96257 19.186 7.74849C18.7892 7.36926 18.3037 7.13847 17.7251 7.05502C17.4448 7.01449 17.389 7.00249 15.9548 7H14.002Z" fill="white"/>
<path d="M14.0003 8.59961C12.8053 8.59961 12.6554 8.60483 12.186 8.62619C11.7176 8.64764 11.3979 8.7218 11.1181 8.83061C10.8287 8.94299 10.5832 9.09333 10.3386 9.33798C10.0939 9.58255 9.94356 9.82803 9.83081 10.1173C9.72173 10.3972 9.64747 10.717 9.62639 11.1853C9.60549 11.6546 9.59999 11.8046 9.59999 12.9996C9.59999 14.1946 9.60531 14.3441 9.62657 14.8134C9.64812 15.2818 9.72228 15.6016 9.83099 15.8813C9.94347 16.1707 10.0938 16.4162 10.3385 16.6608C10.5829 16.9055 10.8284 17.0562 11.1176 17.1686C11.3976 17.2774 11.7174 17.3516 12.1858 17.373C12.6551 17.3944 12.805 17.3996 13.9999 17.3996C15.1949 17.3996 15.3444 17.3944 15.8138 17.373C16.2822 17.3516 16.6023 17.2774 16.8823 17.1686C17.1716 17.0562 17.4167 16.9055 17.6611 16.6608C17.9059 16.4162 18.0562 16.1707 18.169 15.8814C18.2772 15.6016 18.3514 15.2817 18.3734 14.8135C18.3945 14.3442 18.4 14.1946 18.4 12.9996C18.4 11.8046 18.3945 11.6547 18.3734 11.1853C18.3514 10.7169 18.2772 10.3972 18.169 10.1174C18.0562 9.82803 17.9059 9.58255 17.6611 9.33798C17.4164 9.09323 17.1716 8.9429 16.882 8.83061C16.6015 8.7218 16.2816 8.64764 15.8131 8.62619C15.3438 8.60483 15.1944 8.59961 13.999 8.59961H14.0003ZM13.6056 9.39253C13.7227 9.39234 13.8535 9.39253 14.0003 9.39253C15.1751 9.39253 15.3144 9.39674 15.7783 9.41783C16.2073 9.43744 16.4401 9.50913 16.5952 9.56935C16.8006 9.6491 16.947 9.74443 17.1009 9.89843C17.2549 10.0524 17.3502 10.1991 17.4301 10.4044C17.4904 10.5594 17.5621 10.7922 17.5817 11.2212C17.6028 11.685 17.6073 11.8244 17.6073 12.9986C17.6073 14.1729 17.6028 14.3122 17.5817 14.776C17.5621 15.205 17.4904 15.4379 17.4301 15.5928C17.3504 15.7981 17.2549 15.9443 17.1009 16.0982C16.9469 16.2522 16.8007 16.3476 16.5952 16.4273C16.4403 16.4878 16.2073 16.5593 15.7783 16.5789C15.3145 16.6 15.1751 16.6046 14.0003 16.6046C12.8254 16.6046 12.6862 16.6 12.2223 16.5789C11.7933 16.5591 11.5605 16.4874 11.4053 16.4272C11.2 16.3475 11.0533 16.2521 10.8993 16.0981C10.7453 15.9441 10.65 15.7978 10.57 15.5924C10.5098 15.4375 10.438 15.2047 10.4185 14.7757C10.3974 14.3118 10.3932 14.1725 10.3932 12.9975C10.3932 11.8225 10.3974 11.6839 10.4185 11.2201C10.4381 10.7911 10.5098 10.5583 10.57 10.4032C10.6498 10.1978 10.7453 10.0512 10.8993 9.89715C11.0533 9.74315 11.2 9.64782 11.4053 9.56788C11.5604 9.50738 11.7933 9.43588 12.2223 9.41618C12.6282 9.39784 12.7855 9.39234 13.6056 9.39143V9.39253ZM16.349 10.1231C16.2446 10.1231 16.1425 10.1541 16.0557 10.2121C15.9688 10.2701 15.9011 10.3526 15.8612 10.4491C15.8212 10.5456 15.8108 10.6518 15.8312 10.7542C15.8516 10.8566 15.9019 10.9507 15.9757 11.0245C16.0496 11.0984 16.1437 11.1486 16.2461 11.169C16.3486 11.1893 16.4547 11.1789 16.5512 11.1389C16.6477 11.0989 16.7301 11.0312 16.7881 10.9443C16.8461 10.8575 16.8771 10.7554 16.877 10.6509C16.877 10.3594 16.6405 10.1229 16.349 10.1229V10.1231ZM14.0003 10.74C12.7524 10.74 11.7407 11.7518 11.7407 12.9996C11.7407 14.2475 12.7524 15.2587 14.0003 15.2587C15.2482 15.2587 16.2596 14.2475 16.2596 12.9996C16.2596 11.7518 15.2482 10.74 14.0003 10.74ZM14.0003 11.5329C14.8103 11.5329 15.467 12.1896 15.467 12.9996C15.467 13.8096 14.8103 14.4663 14.0003 14.4663C13.1902 14.4663 12.5336 13.8096 12.5336 12.9996C12.5336 12.1896 13.1902 11.5329 14.0003 11.5329Z" fill="#272727"/>
<defs>
<radialGradient id="paint0_radial_2488_3931" cx="0" cy="0" r="1" gradientUnits="userSpaceOnUse" gradientTransform="translate(11.1875 19.9243) rotate(-90) scale(11.8929 11.0613)">
<stop stop-color="#FFDD55"/>
<stop offset="0.1" stop-color="#FFDD55"/>
<stop offset="0.5" stop-color="#FF543E"/>
<stop offset="1" stop-color="#C837AB"/>
</radialGradient>
</defs>
</svg>
