<svg width="24" height="24" viewBox="0 0 24 24" fill="none" xmlns="http://www.w3.org/2000/svg">
<g clip-path="url(#clip0_2488_3641)">
<path d="M12.8571 23.1414V14.1414C12.8571 13.5731 13.0828 13.028 13.4847 12.6262C13.8865 12.2243 14.4316 11.9985 14.9999 11.9985C15.5682 11.9985 16.1133 12.2243 16.5151 12.6262C16.917 13.028 17.1428 13.5731 17.1428 14.1414V18.8557H20.5713C21.4807 18.8557 22.3527 19.2169 22.9957 19.8599C23.6387 20.5029 23.9999 21.3749 23.9999 22.2842V23.1414" fill="#E67E22"/>
<path fill-rule="evenodd" clip-rule="evenodd" d="M0.0531014 7.58401C0.0550328 6.49223 0.292721 5.41374 0.749911 4.42229C1.2071 3.43085 1.87301 2.54983 2.70211 1.83948C3.5312 1.12913 4.50392 0.606212 5.55375 0.306476C6.60359 0.00674071 7.70577 -0.0627398 8.78493 0.102786C9.86409 0.268312 10.8948 0.664939 11.8065 1.26555C12.7182 1.86615 13.4895 2.65657 14.0676 3.58276C14.6457 4.50894 15.0169 5.54904 15.1559 6.63194C15.295 7.71484 15.1985 8.81498 14.8731 9.85715C13.7589 9.89015 12.7014 10.356 11.9249 11.1558C11.1485 11.9556 10.7142 13.0264 10.7142 14.1412V14.5166C9.55957 15.0297 8.29498 15.246 7.03541 15.146C5.77583 15.0461 4.56122 14.6329 3.50194 13.9441C2.44267 13.2553 1.57233 12.3127 0.970013 11.2019C0.3677 10.0912 0.0525141 8.84754 0.0531014 7.58401ZM7.63539 2.03315C8.22853 2.03315 8.70682 2.51315 8.70682 3.10458V3.58972C9.12809 3.68673 9.51811 3.88838 9.84081 4.17603C10.1635 4.46368 10.4085 4.82804 10.5531 5.23544C10.6 5.36815 10.6204 5.5088 10.613 5.64937C10.6055 5.78995 10.5705 5.92768 10.5099 6.05471C10.4492 6.18174 10.3641 6.29558 10.2595 6.38973C10.1548 6.48388 10.0327 6.5565 9.89996 6.60344C9.76725 6.65038 9.62659 6.67072 9.48602 6.66329C9.34545 6.65587 9.20772 6.62084 9.08069 6.56019C8.95366 6.49954 8.83982 6.41446 8.74567 6.30982C8.65152 6.20517 8.5789 6.083 8.53196 5.95029C8.50204 5.8686 8.44796 5.79795 8.37692 5.74774C8.30588 5.69752 8.22124 5.67011 8.13424 5.66915H6.9771C6.91312 5.67026 6.85175 5.69473 6.80455 5.73794C6.75735 5.78115 6.72757 5.84013 6.72083 5.90376C6.71409 5.9674 6.73084 6.0313 6.76794 6.08345C6.80504 6.13559 6.85992 6.17237 6.92224 6.18687L8.68282 6.57087C9.25199 6.69601 9.76162 7.01116 10.1279 7.46446C10.4941 7.91776 10.6952 8.48222 10.698 9.06498C10.7008 9.64774 10.5051 10.2141 10.1432 10.6709C9.78135 11.1277 9.27476 11.4477 8.70682 11.5783V12.0652C8.70682 12.3493 8.59393 12.6218 8.393 12.8228C8.19207 13.0237 7.91955 13.1366 7.63539 13.1366C7.35123 13.1366 7.0787 13.0237 6.87777 12.8228C6.67684 12.6218 6.56396 12.3493 6.56396 12.0652V11.58C6.143 11.4827 5.75333 11.281 5.43094 10.9933C5.10855 10.7057 4.86384 10.3415 4.71939 9.9343C4.62459 9.66628 4.64015 9.37157 4.76264 9.11502C4.88512 8.85847 5.10451 8.66109 5.37253 8.5663C5.64055 8.4715 5.93525 8.48706 6.1918 8.60954C6.44835 8.73203 6.64573 8.95142 6.74053 9.21944C6.77045 9.30113 6.82453 9.37178 6.89557 9.422C6.96661 9.47222 7.05125 9.49962 7.13824 9.50058H8.13424C8.23693 9.49805 8.3352 9.45828 8.41075 9.38868C8.48629 9.31907 8.53395 9.22438 8.54486 9.12224C8.55577 9.0201 8.52917 8.91747 8.47003 8.83349C8.41088 8.7495 8.32323 8.68988 8.22339 8.66572L6.46453 8.28001C5.91972 8.16126 5.43309 7.8569 5.08789 7.419C4.7427 6.9811 4.56038 6.43686 4.57212 5.87938C4.58387 5.3219 4.78895 4.78582 5.15228 4.36284C5.51562 3.93987 6.01463 3.65628 6.56396 3.56058V3.10458C6.56396 2.51144 7.04396 2.03315 7.63539 2.03315ZM12.8571 14.1412V23.9983H24V22.284C24 21.3747 23.6387 20.5026 22.9958 19.8596C22.3528 19.2167 21.4807 18.8554 20.5714 18.8554H17.1428V14.1412C17.1428 13.5728 16.9171 13.0278 16.5152 12.6259C16.1133 12.2241 15.5683 11.9983 15 11.9983C14.4316 11.9983 13.8866 12.2241 13.4847 12.6259C13.0829 13.0278 12.8571 13.5728 12.8571 14.1412Z" fill="#E67E22"/>
</g>
<defs>
<clipPath id="clip0_2488_3641">
<rect width="24" height="24" fill="white"/>
</clipPath>
</defs>
</svg>
