<svg width="28" height="24" viewBox="0 0 28 24" fill="none" xmlns="http://www.w3.org/2000/svg">
<g clip-path="url(#clip0_2488_3659)">
<path d="M10.5262 9.09841C10.6094 7.65466 11.2831 6.22966 12.4513 5.35779C12.2238 4.85154 11.7556 4.49998 11.2 4.49998H9.91375L11.2569 3.46873C11.5719 3.22966 11.6462 2.76091 11.4187 2.42341L11.0119 1.81404C10.7887 1.47654 10.3512 1.39685 10.0362 1.6406L8.63625 2.71404L9.13937 1.27966C9.275 0.890601 9.09125 0.459351 8.72812 0.314039L8.07187 0.0515386C7.70875 -0.0937739 7.30625 0.103101 7.17062 0.492164L6.3 2.97654L5.42937 0.487476C5.29375 0.0984135 4.89125 -0.0984614 4.52812 0.0468511L3.87188 0.309351C3.50875 0.454664 3.325 0.890601 3.465 1.27498L3.96812 2.70935L2.56375 1.6406C2.24875 1.40154 1.81125 1.47654 1.58812 1.81404L1.18125 2.42341C0.958125 2.76091 1.02813 3.22966 1.34312 3.46873L2.68625 4.49998H1.4C0.625625 4.49998 0 5.17029 0 5.99998V22.5C0 23.3297 0.625625 24 1.4 24H8.78937C8.54875 23.5547 8.4 23.0484 8.4 22.5V12C8.4 10.5984 9.31 9.42185 10.5262 9.09841ZM9.8 22.5C9.8 23.3297 10.4256 24 11.2 24H18.2V18H9.8V22.5ZM19.6 24H26.6C27.3744 24 28 23.3297 28 22.5V18H19.6V24ZM26.6 10.5H25.7075C25.8212 10.1437 25.9 9.77341 25.9 9.38435C25.9 7.72029 24.7188 5.99998 22.7456 5.99998C20.6413 5.99998 19.425 8.23591 18.9 9.52966C18.3706 8.23591 17.1544 5.99998 15.0544 5.99998C13.0813 5.99998 11.9 7.72029 11.9 9.38435C11.9 9.77341 11.9744 10.1437 12.0925 10.5H11.2C10.4256 10.5 9.8 11.1703 9.8 12V16.5H18.2V10.5H18.8694L18.9 10.4906L18.9306 10.5H19.6V16.5H28V12C28 11.1703 27.3744 10.5 26.6 10.5ZM14.7 10.5C14.5819 10.4344 14.4769 10.3594 14.385 10.275C14.0656 9.97498 14 9.6281 14 9.38435C14 8.92966 14.28 8.24998 15.0544 8.24998C15.8725 8.24998 16.6119 9.53435 17.0012 10.5H14.7ZM23.415 10.275C23.3231 10.3594 23.2181 10.4344 23.1 10.5H20.7987C21.1838 9.54841 21.9275 8.24998 22.7456 8.24998C23.52 8.24998 23.8 8.92966 23.8 9.38435C23.8 9.6281 23.7344 9.97498 23.415 10.275Z" fill="#E67E22"/>
</g>
<defs>
<clipPath id="clip0_2488_3659">
<rect width="28" height="24" fill="white"/>
</clipPath>
</defs>
</svg>
