<svg width="18" height="24" viewBox="0 0 18 24" fill="none" xmlns="http://www.w3.org/2000/svg">
<g clip-path="url(#clip0_2488_3651)">
<path d="M8.25 0C7.00781 0 6 1.00781 6 2.25V6H2.25C1.00781 6 0 7.00781 0 8.25V9.75C0 10.9922 1.00781 12 2.25 12H6V21.75C6 22.9922 7.00781 24 8.25 24H9.75C10.9922 24 12 22.9922 12 21.75V12H15.75C16.9922 12 18 10.9922 18 9.75V8.25C18 7.00781 16.9922 6 15.75 6H12V2.25C12 1.00781 10.9922 0 9.75 0H8.25Z" fill="#E67E22"/>
</g>
<defs>
<clipPath id="clip0_2488_3651">
<rect width="18" height="24" fill="white"/>
</clipPath>
</defs>
</svg>
