<svg width="28" height="27" viewBox="0 0 28 27" fill="none" xmlns="http://www.w3.org/2000/svg">
<rect width="28" height="27" rx="5" fill="#272727"/>
<path d="M14 19C17.3137 19 20 16.3137 20 13C20 9.68629 17.3137 7 14 7C10.6863 7 8 9.68629 8 13C8 16.3137 10.6863 19 14 19Z" fill="white"/>
<path d="M10.4971 12.9484L14.5376 11.2837C14.9364 11.1103 16.289 10.5554 16.289 10.5554C16.289 10.5554 16.9133 10.3126 16.8613 10.9022C16.8439 11.145 16.7052 11.9947 16.5665 12.9138L16.1329 15.6363C16.1329 15.6363 16.0983 16.0351 15.8035 16.1045C15.5087 16.1739 15.0231 15.8617 14.9364 15.7924C14.867 15.7403 13.6358 14.96 13.185 14.5785C13.0636 14.4744 12.9249 14.2664 13.2023 14.0236C13.8266 13.4513 14.5723 12.7403 15.0231 12.2895C15.2312 12.0814 15.4393 11.5958 14.5723 12.1854L12.1272 13.8328C12.1272 13.8328 11.8497 14.0062 11.3295 13.8502C10.8092 13.6941 10.2023 13.486 10.2023 13.486C10.2023 13.486 9.78612 13.2259 10.4971 12.9484Z" fill="#272727"/>
</svg>
