<svg width="28" height="27" viewBox="0 0 28 27" fill="none" xmlns="http://www.w3.org/2000/svg">
<rect width="28" height="27" rx="5" fill="#272727"/>
<path d="M11.6436 19C17.2157 19 20.2629 14.3837 20.2629 10.3807C20.2629 10.2495 20.2603 10.119 20.2544 9.98907C20.8472 9.56008 21.3589 9.02888 21.7655 8.42039C21.2227 8.66169 20.6385 8.8241 20.0258 8.89734C20.6512 8.52226 21.1314 7.92902 21.3579 7.22178C20.7632 7.57457 20.1127 7.82326 19.4343 7.95712C18.8815 7.36829 18.0945 7 17.223 7C15.5501 7 14.1935 8.35667 14.1935 10.029C14.1935 10.2667 14.2201 10.4979 14.272 10.7197C11.7543 10.593 9.52169 9.38756 8.02752 7.55459C7.75841 8.01686 7.61686 8.5423 7.61732 9.0772C7.61732 10.1282 8.15214 11.056 8.96542 11.5988C8.48436 11.5842 8.01385 11.4542 7.59343 11.2199C7.59299 11.2327 7.59299 11.2451 7.59299 11.2586C7.59299 12.7258 8.63721 13.9507 10.0234 14.2282C9.76302 14.2992 9.49438 14.335 9.22455 14.3349C9.03346 14.3347 8.84282 14.3164 8.6552 14.2802C9.04088 15.4839 10.1592 16.3598 11.4851 16.3843C10.4483 17.197 9.14215 17.681 7.72261 17.681C7.47838 17.681 7.23714 17.6671 7 17.6391C8.34072 18.4984 9.93269 18.9999 11.6437 18.9999" fill="white"/>
</svg>
