<svg width="40" height="40" viewBox="0 0 40 40" fill="none" xmlns="http://www.w3.org/2000/svg">
<g clip-path="url(#clip0_2488_4185)">
<path d="M33.3333 34.1667H6.66659C4.83325 34.1667 3.33325 32.6667 3.33325 30.8333V13.4167C3.33325 12.3333 3.83325 11.3333 4.74992 10.6667L19.9999 0L35.2499 10.6667C36.1666 11.25 36.6666 12.3333 36.6666 13.4167V30.8333C36.6666 32.6667 35.1666 34.1667 33.3333 34.1667Z" fill="#78909C"/>
<path d="M10 9.16699H30V27.5003H10V9.16699Z" fill="white"/>
<path d="M33.3333 34.167H6.66659C4.83325 34.167 3.33325 32.667 3.33325 30.8337V14.167L19.9999 25.0003L36.6666 14.167V30.8337C36.6666 32.667 35.1666 34.167 33.3333 34.167Z" fill="#CFD8DC"/>
<path d="M18.3333 11.667H21.6666V21.667H18.3333V11.667Z" fill="#E67E22"/>
<path d="M15 15H25V18.3333H15V15Z" fill="#E67E22"/>
</g>
<defs>
<clipPath id="clip0_2488_4185">
<rect width="40" height="40" fill="white"/>
</clipPath>
</defs>
</svg>
