<svg width="40" height="40" viewBox="0 0 40 40" fill="none" xmlns="http://www.w3.org/2000/svg">
<path d="M10 8C8.4087 8 6.88258 8.63214 5.75736 9.75736C4.63214 10.8826 4 12.4087 4 14V26C4 27.5913 4.63214 29.1174 5.75736 30.2426C6.88258 31.3679 8.4087 32 10 32H22.1C22.3148 30.9468 22.8634 29.991 23.6642 29.2741C24.465 28.5572 25.4756 28.1174 26.546 28.02C25.9949 27.407 25.5761 26.6869 25.3156 25.9049C25.0551 25.1228 24.9585 24.2954 25.032 23.4744C25.1054 22.6533 25.3472 21.8562 25.7423 21.1328C26.1375 20.4093 26.6774 19.775 27.3286 19.2695C27.9797 18.764 28.728 18.3981 29.5268 18.1946C30.3256 17.991 31.1578 17.9543 31.9714 18.0867C32.785 18.219 33.5627 18.5176 34.2558 18.9638C34.9489 19.41 35.5427 19.9942 36 20.68V14C36 12.4087 35.3679 10.8826 34.2426 9.75736C33.1174 8.63214 31.5913 8 30 8H10ZM35 24C35 25.0609 34.5786 26.0783 33.8284 26.8284C33.0783 27.5786 32.0609 28 31 28C29.9391 28 28.9217 27.5786 28.1716 26.8284C27.4214 26.0783 27 25.0609 27 24C27 22.9391 27.4214 21.9217 28.1716 21.1716C28.9217 20.4214 29.9391 20 31 20C32.0609 20 33.0783 20.4214 33.8284 21.1716C34.5786 21.9217 35 22.9391 35 24ZM38 33C38 35.49 36 38 31 38C26 38 24 35.5 24 33C24 32.2044 24.3161 31.4413 24.8787 30.8787C25.4413 30.3161 26.2044 30 27 30H35C35.7956 30 36.5587 30.3161 37.1213 30.8787C37.6839 31.4413 38 32.2044 38 33Z" fill="#E67E22"/>
</svg>
