<svg width="40" height="40" viewBox="0 0 40 40" fill="none" xmlns="http://www.w3.org/2000/svg">
<path d="M25.0001 23.3337C20.5501 23.3337 11.6667 25.5503 11.6667 30.0003V33.3337H38.3334V30.0003C38.3334 25.5503 29.4501 23.3337 25.0001 23.3337ZM10.0001 16.667V11.667H6.66675V16.667H1.66675V20.0003H6.66675V25.0003H10.0001V20.0003H15.0001V16.667M25.0001 20.0003C26.7682 20.0003 28.4639 19.2979 29.7141 18.0477C30.9644 16.7975 31.6667 15.1018 31.6667 13.3337C31.6667 11.5655 30.9644 9.86986 29.7141 8.61961C28.4639 7.36937 26.7682 6.66699 25.0001 6.66699C23.232 6.66699 21.5363 7.36937 20.286 8.61961C19.0358 9.86986 18.3334 11.5655 18.3334 13.3337C18.3334 15.1018 19.0358 16.7975 20.286 18.0477C21.5363 19.2979 23.232 20.0003 25.0001 20.0003Z" fill="#E67E22"/>
</svg>
