<svg width="73" height="73" viewBox="0 0 73 73" fill="none" xmlns="http://www.w3.org/2000/svg">
<circle cx="36.5" cy="36.5" r="36.5" fill="#29190B"/>
<path d="M37 19.3335C46.205 19.3335 53.6667 26.7952 53.6667 36.0002C53.6667 45.2052 46.205 52.6668 37 52.6668C27.795 52.6668 20.3334 45.2052 20.3334 36.0002C20.3334 26.7952 27.795 19.3335 37 19.3335ZM40.3334 38.3335L37.7267 40.4185C37.6352 40.4917 37.5602 40.5835 37.5065 40.6877C37.4529 40.7919 37.4218 40.9062 37.4154 41.0232C37.4089 41.1402 37.4273 41.2573 37.4691 41.3668C37.511 41.4762 37.5755 41.5756 37.6584 41.6585L39.7234 43.7235C40.1232 44.1239 40.4146 44.6194 40.57 45.1635L40.8617 46.1852C40.9826 46.6138 41.1975 47.0102 41.4907 47.3454C41.7839 47.6807 42.148 47.9465 42.5567 48.1235C44.1515 47.3918 45.5861 46.3525 46.7784 45.0652L46.3884 41.9368C46.3201 41.3926 46.1186 40.8735 45.8017 40.4258C45.4848 39.9781 45.0623 39.6155 44.5717 39.3702L42.1217 38.1435C41.8367 38.0008 41.5167 37.9429 41.1997 37.9766C40.8827 38.0103 40.5821 38.1341 40.3334 38.3335ZM37 22.6668C34.9602 22.6655 32.9473 23.1327 31.1166 24.0326C29.286 24.9325 27.6866 26.2409 26.4417 27.8568L26.1667 28.2252V31.0335C26.1665 32.051 26.4767 33.0444 27.056 33.8809C27.6352 34.7174 28.4559 35.3573 29.4084 35.7152L29.705 35.8152L31.855 36.4735C34.1434 37.1735 36.3717 35.3118 36.15 32.9802L36.1184 32.7385L35.8267 30.9902C35.7623 30.6029 35.8366 30.2053 36.0366 29.8674C36.2366 29.5296 36.5495 29.2732 36.92 29.1435L37.1 29.0935L38.12 28.8602C38.6988 28.7279 39.2451 28.481 39.7269 28.1341C40.2087 27.7873 40.6161 27.3474 40.9251 26.8405C41.234 26.3336 41.4384 25.7699 41.526 25.1828C41.6135 24.5956 41.5826 23.9968 41.435 23.4218C40.0101 22.9208 38.5105 22.6655 37 22.6668Z" fill="#E67E22"/>
</svg>
