<svg width="73" height="73" viewBox="0 0 73 73" fill="none" xmlns="http://www.w3.org/2000/svg">
<circle cx="36.5" cy="36.5" r="36.5" fill="#29190B"/>
<path d="M37.4515 17.4113C33.3887 17.4113 30.0542 20.9816 30.0542 25.4704C30.0542 29.959 33.3887 33.5293 37.4516 33.5293C41.5147 33.5293 44.8516 29.959 44.8516 25.4703C44.8516 20.9815 41.5147 17.4111 37.4516 17.4111L37.4515 17.4113ZM32.8594 28.4732C33.8965 28.7599 34.9214 28.9455 35.9355 29.0372V30.5021C34.7891 30.4075 33.6337 30.2013 32.4687 29.8794L32.8594 28.4732ZM42.0293 28.4732L42.4126 29.8818C41.2835 30.1894 40.1407 30.3961 38.9849 30.4946V29.0323C40.0072 28.9368 41.0205 28.7481 42.0294 28.4732L42.0293 28.4732ZM29.5172 29.6989C23.6337 33.6674 20.8762 39.4807 20.4326 46.8864H20.4497C20.4204 47.0219 20.4057 47.1602 20.4058 47.2989C20.4058 48.3776 21.28 49.252 22.3589 49.252C22.3761 49.252 22.3929 49.25 22.4101 49.2496V49.2668L36.4287 49.2667V39.6256C34.4303 40.0021 32.8959 41.8514 32.8959 44.5157V45.2457H25.0544V43.7857H26.0479C26.3342 41.0375 28.12 37.6921 29.5904 35.8682L30.7255 36.7839C29.5054 38.2974 27.8659 41.6014 27.5298 43.7857H31.4728C31.7884 40.4982 34.2203 38.0924 37.1931 38.0924C39.9259 38.0924 42.5566 40.3547 42.9669 43.7858H47.3224C46.8996 41.5745 45.2497 38.2921 44.0338 36.7839L45.1716 35.8685C46.647 37.6985 48.425 41.0626 48.8093 43.7859H49.6345V45.2459H41.5776L41.558 44.5354C41.4783 41.7498 39.7166 39.9859 37.8885 39.6233V49.2669H52.0023V49.2497C52.0195 49.2502 52.0364 49.2522 52.0537 49.2522C53.1326 49.2522 54.0069 48.3778 54.0069 47.2991C54.0069 47.1357 53.9861 46.9772 53.9483 46.8254C53.5134 39.5907 50.8997 33.8831 45.2739 29.9334C43.7875 32.9299 40.8526 34.9896 37.4516 34.9896C33.9624 34.9896 30.9636 32.8225 29.5172 29.699L29.5172 29.6989ZM27.9667 50.7267L28.6845 54.4376H45.9159L46.5776 50.7267H27.9667Z" fill="#E67E22"/>
</svg>
