<svg width="26" height="26" viewBox="0 0 26 26" fill="none" xmlns="http://www.w3.org/2000/svg">
<path fill-rule="evenodd" clip-rule="evenodd" d="M12.683 4.64136H12.6931C14.1353 4.64136 15.5373 4.9874 16.8282 5.63776L13.4596 9.03817C13.2175 8.99746 12.9553 8.96692 12.6931 8.96692C10.4641 8.96692 8.65874 10.7888 8.65874 13.038C8.65874 13.3027 8.689 13.5673 8.72934 13.8116L4.99759 17.5773C3.98901 16.3967 3.11155 14.9708 2.41563 13.3332C2.33494 13.15 2.33494 12.9261 2.41563 12.7327C4.57399 7.66417 8.41668 4.64136 12.683 4.64136ZM19.3396 7.39913C20.802 8.7426 22.0426 10.5542 22.9705 12.7323C23.0512 12.9257 23.0512 13.1496 22.9705 13.3328C20.8121 18.4013 16.9694 21.4343 12.693 21.4343H12.683C10.7364 21.4343 8.87052 20.7931 7.22653 19.6227L10.4237 16.3963C11.0692 16.8329 11.8559 17.0986 12.693 17.0986C14.9119 17.0986 16.7173 15.2767 16.7173 13.0376C16.7173 12.1929 16.455 11.399 16.0214 10.7476L19.3396 7.39913Z" fill="#121212"/>
<path fill-rule="evenodd" clip-rule="evenodd" d="M19.3397 7.39916L21.1754 5.5468C21.4779 5.25164 21.4779 4.76311 21.1754 4.46795C20.8829 4.17279 20.4088 4.17279 20.1063 4.46795L19.1582 5.42466C19.1481 5.44502 19.1279 5.46537 19.1078 5.48573C19.0977 5.50608 19.0775 5.52644 19.0573 5.54679L19.0573 5.5468L18.1597 6.45364L14.9625 9.68L4.14043 20.5998L4.11017 20.6405C3.90846 20.9356 3.9488 21.3438 4.20095 21.5982C4.34215 21.7499 4.54386 21.8211 4.73549 21.8211C4.92713 21.8211 5.11876 21.7499 5.27004 21.5982L16.0215 10.7477L19.3397 7.39916ZM12.6933 15.5725C14.0751 15.5725 15.2047 14.4326 15.2047 13.0382C15.2047 12.6108 15.1038 12.2037 14.9223 11.8576L11.5233 15.2875C11.8663 15.4707 12.2697 15.5725 12.6933 15.5725Z" fill="#121212"/>
</svg>
