<svg width="31" height="30" viewBox="0 0 31 30" fill="none" xmlns="http://www.w3.org/2000/svg">
<path fill-rule="evenodd" clip-rule="evenodd" d="M10.4486 11.0164H20.9467C23.8712 11.0164 26.2424 13.3352 26.2424 16.1952V22.3197C26.2424 25.1797 23.8712 27.4986 20.9467 27.4986H10.4486C7.5241 27.4986 5.15295 25.1797 5.15295 22.3197V16.1952C5.15295 13.3352 7.5241 11.0164 10.4486 11.0164ZM15.6912 21.7043C16.3089 21.7043 16.8005 21.2236 16.8005 20.6195V17.8827C16.8005 17.291 16.3089 16.8102 15.6912 16.8102C15.0861 16.8102 14.5945 17.291 14.5945 17.8827V20.6195C14.5945 21.2236 15.0861 21.7043 15.6912 21.7043Z" fill="#E67E22"/>
<path opacity="0.4" d="M22.5489 9.38147V11.206C22.1077 11.0827 21.6413 11.0211 21.1623 11.0211H20.3429V9.38147C20.3429 6.87894 18.2629 4.84486 15.704 4.84486C13.145 4.84486 11.065 6.86661 11.0524 9.35682V11.0211H10.2457C9.75405 11.0211 9.28764 11.0827 8.84644 11.2183V9.38147C8.85904 5.68314 11.9222 2.6875 15.6788 2.6875C19.4857 2.6875 22.5489 5.68314 22.5489 9.38147Z" fill="#E67E22"/>
</svg>
