<svg width="31" height="31" viewBox="0 0 31 31" fill="none" xmlns="http://www.w3.org/2000/svg">
<path opacity="0.4" d="M28.1031 20.5858C28.1031 24.0469 25.3243 26.8506 21.8632 26.863H21.8507H9.55685C6.10811 26.863 3.29205 24.0718 3.29205 20.6106V20.5982C3.29205 20.5982 3.2995 15.1075 3.30942 12.346C3.31066 11.8275 3.90613 11.5372 4.31179 11.8597C7.25935 14.1982 12.5305 18.462 12.5962 18.5178C13.477 19.2237 14.5935 19.6219 15.7348 19.6219C16.8761 19.6219 17.9926 19.2237 18.8734 18.5041C18.9392 18.4607 24.0924 14.3247 27.0846 11.9478C27.4915 11.624 28.0895 11.9143 28.0907 12.4316C28.1031 15.172 28.1031 20.5858 28.1031 20.5858" fill="#E67E22"/>
<path d="M27.4532 7.84922C26.3789 5.82464 24.265 4.53198 21.9377 4.53198H9.557C7.22972 4.53198 5.11582 5.82464 4.0415 7.84922C3.80083 8.30203 3.91496 8.86648 4.31566 9.18654L13.5268 16.5542C14.1719 17.0752 14.9534 17.3345 15.735 17.3345C15.7399 17.3345 15.7436 17.3345 15.7474 17.3345C15.7511 17.3345 15.7561 17.3345 15.7598 17.3345C16.5413 17.3345 17.3229 17.0752 17.968 16.5542L27.1791 9.18654C27.5798 8.86648 27.6939 8.30203 27.4532 7.84922" fill="#E67E22"/>
</svg>
